<svg xmlns="http://www.w3.org/2000/svg" viewBox="0 0 420 500">
  <defs>
    <linearGradient id="glow" x1="0" y1="0" x2="1" y2="1">
      <stop offset="0%" stop-color="#2e8b57"/>
      <stop offset="100%" stop-color="#f4a261"/>
    </linearGradient>
    <filter id="soft" x="-20%" y="-20%" width="140%" height="140%">
      <feGaussianBlur stdDeviation="6"/>
    </filter>
  </defs>
  <rect width="420" height="500" rx="24" fill="#10121b"/>
  <ellipse cx="210" cy="460" rx="160" ry="22" fill="#000" opacity="0.35"/>
  <g filter="url(#soft)">
    <circle cx="120" cy="120" r="90" fill="url(#glow)" opacity="0.35"/>
    <circle cx="330" cy="140" r="70" fill="url(#glow)" opacity="0.25"/>
  </g>
  <g transform="translate(60 80)">
    <rect x="20" y="120" width="280" height="200" rx="24" fill="#1a1d2a"/>
    <rect x="40" y="90" width="80" height="32" rx="8" fill="#2b2f43"/>
    <rect x="248" y="152" width="24" height="16" rx="2" fill="#2b2f43"/>
    <circle cx="160" cy="220" r="58" fill="#0e1018"/>
    <circle cx="160" cy="220" r="34" fill="#1f2333"/>
    <circle cx="160" cy="220" r="18" fill="#2b3150"/>
  </g>
  <g transform="translate(140 26)">
    <circle cx="80" cy="48" r="36" fill="#f2c6a6"/>
    <rect x="46" y="84" width="68" height="16" rx="8" fill="#2b2f43"/>
    <rect x="54" y="64" width="52" height="20" rx="8" fill="#2b2f43"/>
  </g>
</svg>

